<svg xmlns="http://www.w3.org/2000/svg" viewBox="0 0 2704.17 2704.17"><defs><style>.cls-1{fill:#121516;}.cls-2{fill:#fff;}</style></defs><g id="Layer_2" data-name="Layer 2"><g id="Layer_1-2" data-name="Layer 1"><rect class="cls-1" width="2704.17" height="2704.17" rx="529.19"/><path class="cls-2" d="M1308.06,2298c20.25,4.47,35.08,6.82,44.49,6.82s24-2.35,44.26-6.82c252.14-55.8,481.44-173,642.94-348.19V1536.16a27.57,27.57,0,0,0-13.42-23.54l-81-46.38a7.66,7.66,0,0,0-11.54,6.36v434.82a51.4,51.4,0,0,1-17.89,38.85l-74.63,61.91a9.59,9.59,0,0,1-15.54-7.53v-574.9a14.28,14.28,0,0,0-9.18-13.19l-86.87-32a8.06,8.06,0,0,0-10.83,7.53v683.67c0,8-4.24,15.3-11.3,18.6-31.07,15.53-61.68,29.89-91.58,42.37V1465.3h-.44V1364.63a7.48,7.48,0,0,0-5.79-7.33L1522,1336.51a10.61,10.61,0,0,0-13,10.39v210.8c0,.24.06.47.06.71v615c-29.9,9.89-59.33,18.36-88,25.19a13.35,13.35,0,0,1-14.59-6.12V1333.46H1297.94v858.82a13,13,0,0,1-14.36,5.89c-29-6.83-58.39-15.3-88.52-25.19V1465.3h-.37l-.38-117.2a10.43,10.43,0,0,0-12.78-10.23l-87.07,21a7.31,7.31,0,0,0-5.8,7.16l.33,99.31h-.34v667.42c-30.14-12.71-60.74-26.84-92.05-42.37a20.62,20.62,0,0,1-11.3-18.6V1516.62l-.47-127.13c0-5.65-5.65-9.41-11.07-7.77l-86.87,32.73a13.52,13.52,0,0,0-8.95,13l2.12,574.9a9.56,9.56,0,0,1-15.53,7.53l-74.87-61.68a50.09,50.09,0,0,1-18.13-38.84l-1.41-434.59a7.94,7.94,0,0,0-11.77-6.6l-80.75,47.09a27,27,0,0,0-13.18,23.31l.7,254.72a4,4,0,0,1-.7,2.36v154C825.92,2125,1055.69,2242.43,1308.06,2298Z"/><path class="cls-2" d="M2039.75,1411.62V1292.5c-211.41-108.53-447.06-162-687.2-161.74-240.6.24-476.72,54.15-688.13,163.62v119.36c209.52-117,441.41-177,687-177.51C1597.39,1235.53,1829.52,1295.09,2039.75,1411.62Z"/><path class="cls-2" d="M877.7,1106l202.78-48.56a12,12,0,0,0,9.38-10.91Q1103.66,866,1172.33,721a4.74,4.74,0,0,0-6.3-6.3q-240,117.57-293.78,386A4.61,4.61,0,0,0,877.7,1106Z"/><path class="cls-2" d="M1538,722.71q69,144.42,83.33,324.28a12.14,12.14,0,0,0,9.37,10.91l202.44,47.71a4.45,4.45,0,0,0,5.45-5.28q-54.43-267.61-294.29-383.92C1540.4,714.36,1536.14,718.62,1538,722.71Z"/><path class="cls-2" d="M1200,1039.89h308.17a2.32,2.32,0,0,0,2.12-2.35q-10.95-203.06-108.06-356a60.53,60.53,0,0,1-9.65-33V444a10.76,10.76,0,0,1,9.65-10.83c29.43-3.53,73-5.65,116.77-1.18h.94c10.12,1.18,19.54,2.36,28.25,4,3.06.47,6.36,1,9.42,1.65A301.15,301.15,0,0,1,1600,449.45c81.69,29.9,83.58,82.64,83.58,87.58V428.5c.47-8.74.36-17,0-25V401l-.15-.12c-10.09-180.15-223.46-187-361.7-142.08a14.49,14.49,0,0,0-10.12,14.13V649.33A74.89,74.89,0,0,1,1298.88,691c-67.33,100.29-92.29,221.53-103.82,343.48C1195.06,1037.54,1197.18,1039.89,1200,1039.89Z"/></g></g></svg>